<svg width="297" height="48" fill="none" xmlns="http://www.w3.org/2000/svg"><path d="M37.654 8.504c-3.805.212-11.37.986-16.039 3.8-.322.194-.505.54-.505.9v24.874c0 .79.878 1.289 1.617.922 4.804-2.38 11.752-3.03 15.188-3.207 1.172-.061 2.084-.987 2.084-2.096V10.602c.001-1.21-1.066-2.17-2.345-2.098Zm-19.27 3.8C13.715 9.49 6.151 8.717 2.346 8.504 1.066 8.433 0 9.392 0 10.602v23.096c0 1.11.912 2.035 2.085 2.096 3.437.177 10.388.827 15.192 3.209.738.366 1.612-.133 1.612-.92V13.192c0-.362-.182-.693-.505-.888ZM50.323 38h-2.905V13.015h13.911v2.563H50.323v9.16h10.34v2.547h-10.34V38ZM67.91 19.27V38h-2.837V19.27h2.837Zm-1.385-7.007c.468 0 .866.153 1.197.461.341.296.512.764.512 1.402 0 .626-.17 1.093-.512 1.4-.33.309-.73.462-1.197.462-.49 0-.9-.153-1.23-.461-.32-.308-.479-.775-.479-1.401 0-.638.16-1.106.479-1.402.33-.308.74-.461 1.23-.461Zm16.27 6.665c2.222 0 3.902.547 5.041 1.64 1.14 1.083 1.71 2.826 1.71 5.23V38h-2.803V25.986c0-1.561-.36-2.729-1.077-3.504-.706-.774-1.794-1.162-3.264-1.162-2.074 0-3.532.587-4.375 1.76-.843 1.174-1.265 2.877-1.265 5.11V38h-2.837V19.27h2.29l.428 2.7h.153a5.574 5.574 0 0 1 1.521-1.658 6.63 6.63 0 0 1 2.068-1.025 8.011 8.011 0 0 1 2.41-.36Zm19.602.034c2.233 0 3.891.501 4.973 1.504 1.082 1.002 1.624 2.603 1.624 4.802V38h-2.068l-.547-2.769h-.137a10.415 10.415 0 0 1-1.64 1.727A6.106 6.106 0 0 1 102.618 38c-.74.228-1.652.342-2.734.342-1.14 0-2.153-.2-3.042-.598a4.737 4.737 0 0 1-2.085-1.812c-.502-.809-.752-1.834-.752-3.076 0-1.869.74-3.304 2.222-4.307 1.48-1.002 3.736-1.55 6.767-1.64l3.23-.137v-1.145c0-1.618-.347-2.752-1.042-3.4-.695-.65-1.675-.975-2.94-.975-.98 0-1.914.142-2.803.427-.888.285-1.731.621-2.529 1.009l-.871-2.154c.843-.433 1.811-.803 2.905-1.11a12.694 12.694 0 0 1 3.452-.462Zm3.794 9.81-2.854.12c-2.336.09-3.982.472-4.939 1.144-.957.672-1.436 1.624-1.436 2.854 0 1.071.325 1.863.975 2.376.649.512 1.51.769 2.58.769 1.664 0 3.025-.462 4.085-1.385 1.059-.922 1.589-2.307 1.589-4.152V28.77Zm17.517-9.844c2.222 0 3.902.547 5.042 1.64 1.139 1.083 1.709 2.826 1.709 5.23V38h-2.803V25.986c0-1.561-.359-2.729-1.077-3.504-.706-.774-1.794-1.162-3.264-1.162-2.074 0-3.532.587-4.375 1.76-.843 1.174-1.265 2.877-1.265 5.11V38h-2.837V19.27h2.29l.428 2.7h.153a5.58 5.58 0 0 1 1.521-1.658 6.643 6.643 0 0 1 2.068-1.025 8.018 8.018 0 0 1 2.41-.36Zm20.098 19.414c-1.687 0-3.173-.348-4.461-1.043-1.287-.695-2.29-1.754-3.008-3.178-.717-1.425-1.076-3.219-1.076-5.384 0-2.267.376-4.118 1.128-5.554.763-1.447 1.811-2.518 3.144-3.213 1.333-.695 2.849-1.042 4.546-1.042.934 0 1.834.097 2.7.29.878.183 1.595.416 2.154.7l-.855 2.376c-.57-.227-1.23-.433-1.982-.615a8.75 8.75 0 0 0-2.085-.273c-1.299 0-2.381.279-3.247.837-.855.558-1.499 1.379-1.931 2.461-.422 1.082-.633 2.415-.633 4 0 1.514.205 2.808.615 3.879.422 1.07 1.043 1.89 1.863 2.46.832.559 1.869.838 3.111.838.991 0 1.885-.103 2.683-.308a15.545 15.545 0 0 0 2.17-.752v2.53a8.784 8.784 0 0 1-2.102.734c-.763.171-1.675.257-2.734.257Zm16.491-19.414c1.595 0 2.963.353 4.102 1.06 1.139.706 2.011 1.697 2.615 2.973.604 1.265.905 2.746.905 4.443v1.76h-12.937c.035 2.2.581 3.874 1.641 5.025 1.06 1.15 2.552 1.726 4.478 1.726 1.185 0 2.233-.108 3.144-.325a17.317 17.317 0 0 0 2.837-.957v2.495a13.82 13.82 0 0 1-2.82.923c-.923.194-2.016.29-3.281.29-1.8 0-3.372-.364-4.717-1.093-1.333-.74-2.37-1.823-3.11-3.247-.741-1.424-1.111-3.167-1.111-5.23 0-2.016.336-3.76 1.008-5.229.684-1.481 1.641-2.62 2.871-3.418 1.242-.797 2.701-1.196 4.375-1.196Zm-.034 2.324c-1.515 0-2.723.496-3.623 1.487-.9.991-1.435 2.375-1.606 4.153h9.912c-.012-1.117-.188-2.097-.53-2.94-.33-.854-.837-1.515-1.521-1.982-.684-.479-1.561-.718-2.632-.718Z" fill="#28A745"/><path d="M187.418 38V13.015h2.905v22.387h11.092V38h-13.997Zm25.071-19.072c1.595 0 2.962.353 4.101 1.06 1.14.706 2.011 1.697 2.615 2.973.604 1.265.906 2.746.906 4.443v1.76h-12.937c.034 2.2.581 3.874 1.64 5.025 1.06 1.15 2.553 1.726 4.478 1.726 1.185 0 2.233-.108 3.145-.325a17.307 17.307 0 0 0 2.836-.957v2.495c-.945.422-1.885.73-2.819.923-.923.194-2.017.29-3.282.29-1.8 0-3.372-.364-4.716-1.093-1.333-.74-2.37-1.823-3.111-3.247-.74-1.424-1.111-3.167-1.111-5.23 0-2.016.336-3.76 1.009-5.229.683-1.481 1.64-2.62 2.871-3.418 1.242-.797 2.7-1.196 4.375-1.196Zm-.034 2.324c-1.516 0-2.723.496-3.623 1.487-.901.991-1.436 2.375-1.607 4.153h9.912c-.011-1.117-.188-2.097-.53-2.94-.33-.854-.837-1.515-1.521-1.982-.683-.479-1.56-.718-2.631-.718Zm19.14 17.09c-2.37 0-4.249-.81-5.639-2.427-1.379-1.618-2.068-4.022-2.068-7.212 0-3.224.706-5.657 2.119-7.297 1.413-1.652 3.292-2.478 5.639-2.478.992 0 1.858.13 2.598.393a6.194 6.194 0 0 1 1.914 1.06c.536.432.986.928 1.35 1.486h.205a28.533 28.533 0 0 1-.136-1.452 21.008 21.008 0 0 1-.069-1.504v-7.503h2.837V38h-2.29l-.427-2.666h-.12a6.504 6.504 0 0 1-1.35 1.521c-.535.456-1.179.82-1.931 1.094-.741.262-1.618.393-2.632.393Zm.445-2.359c2.005 0 3.423-.57 4.255-1.709.832-1.139 1.247-2.83 1.247-5.075v-.513c0-2.381-.398-4.21-1.196-5.486-.786-1.276-2.221-1.914-4.306-1.914-1.744 0-3.048.672-3.914 2.017-.866 1.333-1.299 3.156-1.299 5.468 0 2.302.427 4.08 1.282 5.332.866 1.254 2.176 1.88 3.931 1.88Zm19.55 10.425c-2.461 0-4.358-.461-5.691-1.384-1.333-.912-1.999-2.193-1.999-3.845 0-1.174.37-2.176 1.111-3.008.752-.832 1.788-1.384 3.11-1.658a3.414 3.414 0 0 1-1.265-1.025 2.555 2.555 0 0 1-.512-1.572c0-.684.188-1.282.564-1.795.387-.524.974-1.025 1.76-1.504-.98-.399-1.777-1.07-2.393-2.016-.603-.957-.905-2.068-.905-3.333 0-1.344.279-2.49.837-3.435.558-.957 1.367-1.686 2.427-2.188 1.059-.5 2.341-.751 3.845-.751.33 0 .661.017.991.05.342.024.667.064.974.12.308.046.576.103.804.171h6.425v1.829l-3.452.427c.342.445.627.98.855 1.607.228.626.341 1.321.341 2.085 0 1.868-.632 3.355-1.896 4.46-1.265 1.094-3.003 1.64-5.213 1.64a9.764 9.764 0 0 1-1.606-.136c-.559.308-.986.65-1.282 1.025a2.091 2.091 0 0 0-.427 1.3c0 .364.108.654.324.87.228.217.553.377.975.48.421.09.928.136 1.52.136h3.299c2.039 0 3.6.427 4.682 1.282 1.094.854 1.641 2.102 1.641 3.742 0 2.074-.843 3.663-2.529 4.769-1.686 1.105-4.125 1.657-7.315 1.657Zm.086-2.221c1.549 0 2.831-.16 3.845-.479 1.025-.308 1.789-.758 2.29-1.35.513-.581.769-1.276.769-2.085 0-.752-.171-1.322-.513-1.709-.341-.376-.843-.627-1.504-.752-.66-.137-1.469-.205-2.426-.205h-3.247c-.843 0-1.578.131-2.205.393s-1.111.65-1.453 1.162c-.33.513-.495 1.15-.495 1.914 0 1.014.427 1.783 1.282 2.307.854.536 2.073.803 3.657.803Zm.735-14.971c1.355 0 2.375-.342 3.059-1.026.683-.683 1.025-1.68 1.025-2.99 0-1.402-.347-2.45-1.042-3.145-.695-.706-1.721-1.06-3.077-1.06-1.298 0-2.301.365-3.007 1.094-.695.718-1.043 1.772-1.043 3.162 0 1.276.353 2.256 1.06 2.94.706.683 1.714 1.025 3.025 1.025Zm20.166-10.288c1.595 0 2.962.353 4.101 1.06 1.14.706 2.011 1.697 2.615 2.973.604 1.265.906 2.746.906 4.443v1.76h-12.937c.034 2.2.581 3.874 1.64 5.025 1.06 1.15 2.552 1.726 4.478 1.726 1.185 0 2.233-.108 3.144-.325a17.285 17.285 0 0 0 2.837-.957v2.495c-.945.422-1.885.73-2.819.923-.923.194-2.017.29-3.282.29-1.8 0-3.372-.364-4.717-1.093-1.333-.74-2.369-1.823-3.11-3.247-.74-1.424-1.111-3.167-1.111-5.23 0-2.016.336-3.76 1.009-5.229.683-1.481 1.64-2.62 2.871-3.418 1.242-.797 2.7-1.196 4.375-1.196Zm-.035 2.324c-1.515 0-2.723.496-3.623 1.487-.9.991-1.435 2.375-1.606 4.153h9.912c-.011-1.117-.188-2.097-.53-2.94-.33-.854-.837-1.515-1.521-1.982-.683-.479-1.561-.718-2.632-.718Zm20.987-2.324c.376 0 .769.023 1.179.068.41.034.775.085 1.094.154l-.359 2.632a7.896 7.896 0 0 0-1.026-.188 8.809 8.809 0 0 0-1.059-.069c-.752 0-1.464.154-2.136.462a5.06 5.06 0 0 0-1.743 1.299c-.502.558-.895 1.236-1.18 2.033-.285.787-.427 1.664-.427 2.632V38h-2.854V19.27h2.358l.308 3.452h.12a9.164 9.164 0 0 1 1.401-1.897 6.307 6.307 0 0 1 1.897-1.385c.729-.341 1.538-.512 2.427-.512Z" fill="#fff"/></svg>